<?xml version="1.0"?>
<svg xmlns="http://www.w3.org/2000/svg" xmlns:xlink="http://www.w3.org/1999/xlink" version="1.1" id="Capa_1" x="0px" y="0px" viewBox="0 0 512 512" style="enable-background:new 0 0 512 512;" xml:space="preserve" width="512px" height="512px"><g><g>
	<g>
		<path d="M465.677,241.757c14.844,0,28.569,4.753,39.77,12.8V108.025h-139.88c8.046-11.2,12.8-24.926,12.8-39.77    C378.367,30.559,347.808,0,310.112,0c-37.696,0-68.255,30.559-68.255,68.255c0,14.844,4.754,28.569,12.8,39.77h-139.88v145.22    c-11.236-8.134-25.037-12.942-39.969-12.942c-37.696,0-68.255,30.559-68.255,68.255s30.559,68.255,68.255,68.255    c14.932,0,28.733-4.808,39.969-12.942V512h139.88c-8.047-11.2-12.8-24.926-12.8-39.77c0-37.696,30.559-68.255,68.255-68.255    c37.696,0,68.255,30.559,68.255,68.255c0,14.844-4.753,28.569-12.8,39.77h139.88V365.467c-11.2,8.047-24.926,12.8-39.77,12.8    c-37.696,0-68.255-30.559-68.255-68.255C397.422,272.316,427.981,241.757,465.677,241.757z" data-original="#000000" class="active-path" data-old_color="#000000" fill="#1DA1F2"/>
	</g>
</g></g> </svg>
