<?xml version="1.0"?>
<svg xmlns="http://www.w3.org/2000/svg" xmlns:xlink="http://www.w3.org/1999/xlink" version="1.1" id="Capa_1" x="0px" y="0px" viewBox="0 0 512 512" style="enable-background:new 0 0 512 512;" xml:space="preserve" width="512px" height="512px" class=""><g><g>
	<g>
		<path d="M421.333,416.914v-17.248c0-31.797-25.869-57.667-57.666-57.667h-19.471l-80.172-138.863    C283.278,181.56,295,153.125,295,122C295,54.729,240.271,0,173,0S51,54.729,51,122s54.729,122,122,122    c5.748,0,11.401-0.409,16.939-1.182l57.312,99.266c-30.369,1.608-54.583,26.819-54.583,57.582v17.248    C169.398,426.607,153,449.588,153,476.327V502c0,5.523,4.478,10,10,10h288c5.522,0,10-4.477,10-10v-25.673    C461,449.588,444.602,426.607,421.333,416.914z M173,224c-56.243,0-102-45.757-102-102S116.757,20,173,20s102,45.757,102,102    S229.243,224,173,224z M210.337,238.149c14.234-4.587,27.333-11.721,38.761-20.865L321.103,342h-50.807L210.337,238.149z M441,492    H173v-15.673C173,451.885,192.885,432,217.327,432c5.522,0,10-4.477,10-10s-4.478-10-10-10h-4.66v-12.333    c0-20.77,16.896-37.667,37.666-37.667h113.334c20.77,0,37.666,16.897,37.666,37.667V412h-4.66H312c-5.522,0-10,4.477-10,10    s4.478,10,10,10h84.673C421.115,432,441,451.885,441,476.327V492z" data-original="#000000" class="active-path" data-old_color="#000000" fill="#657786"/>
	</g>
</g><g>
	<g>
		<path d="M238.904,112c-5.522,0-10,4.477-10,10c0,30.826-25.078,55.905-55.904,55.905c-5.522,0-10,4.477-10,10    c0,5.523,4.478,10,10,10c41.854,0,75.904-34.051,75.904-75.905C248.904,116.477,244.427,112,238.904,112z" data-original="#000000" class="active-path" data-old_color="#000000" fill="#657786"/>
	</g>
</g><g>
	<g>
		<path d="M220.91,63.122c-4.408-3.535-10.61-2.901-14.121,1.436c-3.511,4.336-2.837,10.534,1.535,14.109    c0.05,0.041,0.101,0.081,0.15,0.121c1.902,1.495,4.127,2.223,6.321,2.223c2.928,0,5.802-1.296,7.785-3.794    C226.05,72.845,225.316,66.654,220.91,63.122z" data-original="#000000" class="active-path" data-old_color="#000000" fill="#657786"/>
	</g>
</g><g>
	<g>
		<path d="M271.59,414.93c-1.861-1.86-4.441-2.93-7.07-2.93c-2.63,0-5.21,1.07-7.069,2.93c-1.86,1.86-2.931,4.44-2.931,7.07    s1.07,5.21,2.931,7.07c1.859,1.86,4.439,2.93,7.069,2.93s5.21-1.07,7.07-2.93c1.87-1.86,2.93-4.44,2.93-7.07    S273.46,416.79,271.59,414.93z" data-original="#000000" class="active-path" data-old_color="#000000" fill="#657786"/>
	</g>
</g></g> </svg>
